<svg id="Capa_2" data-name="Capa 2" xmlns="http://www.w3.org/2000/svg" viewBox="0 0 501.62 118.93"><defs><style>.cls-1,.cls-2{fill:#fff;}.cls-1{stroke:#fff;stroke-miterlimit:10;}</style></defs><rect class="cls-1" x="0.5" y="4.05" width="16.49" height="111.22"/><polygon class="cls-1" points="391.37 114.64 391.37 1.09 484.94 81.97 484.94 3.63 501.12 3.63 501.12 117.83 408.5 36.93 408.5 114.64 391.37 114.64"/><path class="cls-2" d="M304.5,351.41c-32.85,0-59.58-26.24-59.58-58.51s26.73-58.5,59.58-58.5a59.7,59.7,0,0,1,42.38,17.38L335.6,263.13a43.78,43.78,0,0,0-31.1-12.73c-24,0-43.58,19.07-43.58,42.5s19.55,42.51,43.58,42.51a44.06,44.06,0,0,0,33-14.7l12,10.62A60.09,60.09,0,0,1,304.5,351.41Z" transform="translate(-168.73 -233.33)"/><path class="cls-2" d="M489.24,269.79a41.45,41.45,0,0,1,7,23c0,23.44-19.55,42.51-43.58,42.51a44.05,44.05,0,0,1-27.35-9.45L413.1,336.52a60,60,0,0,0,39.52,14.78c32.85,0,59.58-26.25,59.58-58.51a57.45,57.45,0,0,0-10.85-33.61Z" transform="translate(-168.73 -233.33)"/><path class="cls-2" d="M414.75,313.79a41.5,41.5,0,0,1-5.71-21c0-23.44,19.55-42.51,43.58-42.51a44.09,44.09,0,0,1,25.44,8l12.29-10.77a60,60,0,0,0-37.73-13.26c-32.85,0-59.58,26.25-59.58,58.51a57.38,57.38,0,0,0,9.53,31.68Z" transform="translate(-168.73 -233.33)"/></svg>